<mxfile host="app.diagrams.net" agent="Mozilla/5.0 (Windows NT 10.0; Win64; x64) AppleWebKit/537.36 (KHTML, like Gecko) Chrome/127.0.0.0 Safari/537.36 OPR/113.0.0.0" version="24.7.17">
  <diagram name="Página-1" id="t-Y8MbZWUspfaIM4doJf">
    <mxGraphModel dx="1009" dy="573" grid="1" gridSize="10" guides="1" tooltips="1" connect="1" arrows="1" fold="1" page="1" pageScale="1" pageWidth="827" pageHeight="1169" math="0" shadow="0">
      <root>
        <mxCell id="0" />
        <mxCell id="1" parent="0" />
        <mxCell id="OQe3m40f6RcweIfARJ8S-4" style="edgeStyle=orthogonalEdgeStyle;rounded=0;orthogonalLoop=1;jettySize=auto;html=1;entryX=0.5;entryY=0;entryDx=0;entryDy=0;" edge="1" parent="1" source="FPkFMD_mEpgcOzCc-wzM-2" target="OQe3m40f6RcweIfARJ8S-1">
          <mxGeometry relative="1" as="geometry" />
        </mxCell>
        <mxCell id="FPkFMD_mEpgcOzCc-wzM-2" value="Ler P1, P2, P3, P4" style="shape=parallelogram;perimeter=parallelogramPerimeter;whiteSpace=wrap;html=1;fixedSize=1;" parent="1" vertex="1">
          <mxGeometry x="380" y="585" width="120" height="60" as="geometry" />
        </mxCell>
        <mxCell id="OQe3m40f6RcweIfARJ8S-6" style="edgeStyle=orthogonalEdgeStyle;rounded=0;orthogonalLoop=1;jettySize=auto;html=1;" edge="1" parent="1" source="OQe3m40f6RcweIfARJ8S-1" target="OQe3m40f6RcweIfARJ8S-5">
          <mxGeometry relative="1" as="geometry" />
        </mxCell>
        <mxCell id="OQe3m40f6RcweIfARJ8S-1" value="media=(P1+P2+P3+P4)/4" style="rounded=0;whiteSpace=wrap;html=1;" vertex="1" parent="1">
          <mxGeometry x="380" y="700" width="120" height="60" as="geometry" />
        </mxCell>
        <mxCell id="OQe3m40f6RcweIfARJ8S-3" style="edgeStyle=orthogonalEdgeStyle;rounded=0;orthogonalLoop=1;jettySize=auto;html=1;" edge="1" parent="1" source="OQe3m40f6RcweIfARJ8S-2" target="FPkFMD_mEpgcOzCc-wzM-2">
          <mxGeometry relative="1" as="geometry" />
        </mxCell>
        <mxCell id="OQe3m40f6RcweIfARJ8S-2" value="Ínicio" style="ellipse;whiteSpace=wrap;html=1;aspect=fixed;" vertex="1" parent="1">
          <mxGeometry x="400" y="460" width="80" height="80" as="geometry" />
        </mxCell>
        <mxCell id="OQe3m40f6RcweIfARJ8S-8" style="edgeStyle=orthogonalEdgeStyle;rounded=0;orthogonalLoop=1;jettySize=auto;html=1;" edge="1" parent="1" source="OQe3m40f6RcweIfARJ8S-5" target="OQe3m40f6RcweIfARJ8S-7">
          <mxGeometry relative="1" as="geometry" />
        </mxCell>
        <mxCell id="OQe3m40f6RcweIfARJ8S-5" value="Escrever media" style="shape=parallelogram;perimeter=parallelogramPerimeter;whiteSpace=wrap;html=1;fixedSize=1;" vertex="1" parent="1">
          <mxGeometry x="380" y="820" width="120" height="60" as="geometry" />
        </mxCell>
        <mxCell id="OQe3m40f6RcweIfARJ8S-7" value="fim" style="ellipse;whiteSpace=wrap;html=1;aspect=fixed;" vertex="1" parent="1">
          <mxGeometry x="400" y="940" width="80" height="80" as="geometry" />
        </mxCell>
      </root>
    </mxGraphModel>
  </diagram>
</mxfile>
